PathFileType	4	(X/Y/Z)	C:/Users/beibeiliu/ov580/test_trc/capture2\sequence.5_training_dense_right.trc
DataRate	CameraRate	NumFrames	NumMarkers	Units	OrigDataRate	OrigDataStartFrame	OrigNumFrames
120	120	22	19	mm	120	176	350
Frame#	Time	ThumbCMC			ThumbMCP			ThumbIP			ThumbTip			IndexMCP			IndexPIP			IndexTip			MiddleMCP			MiddlePIP			MiddleTip			RingMCP			RingPIP			RingTip			PinkyMCP			PinkyPIP			PinkyTip			BackHand1			BackHand2			BackHand3	
		X0	Y0	Z0	X1	Y1	Z1	X2	Y2	Z2	X3	Y3	Z3	X4	Y4	Z4	X5	Y5	Z5	X6	Y6	Z6	X7	Y7	Z7	X8	Y8	Z8	X9	Y9	Z9	X10	Y10	Z10	X11	Y11	Z11	X12	Y12	Z12	X13	Y13	Z13	X14	Y14	Z14	X15	Y15	Z15	X16	Y16	Z16	X17	Y17	Z17	X18	Y18	Z18	
175	1.45833	141.009	73.6265	-12.2466	135.816	74.0641	-47.3137	140.503	78.9651	-74.2931	160.628	72.9284	-87.8333	185.324	113.724	-54.6715	189.901	121.647	-79.0904	196.786	128.191	-105.156	188.182	91.2302	-67.4937	164.075	70.7043	-81.9965	156.409	56.4238	-51.7533	192.202	68.0416	-68.8559	165.943	51.7101	-68.1093	161.578	48.8155	-38.1182	197.03	51.7789	-64.351	171.224	42.307	-57.9585	167.009	41.9155	-26.3623	207.21	64.3684	-10.635	191.536	49.747	12.8017	178.752	81.0279	4.56221	
176	1.46667	141.916	71.6809	-11.5917	136.521	73.4992	-45.8337	141.915	78.8197	-74.8163	163.62	72.9926	-87.723	185.4	110.064	-59.9511	184.539	117.027	-84.118	189.111	118.424	-107.639	188.997	87.9249	-71.2117	166.356	68.8715	-82.2789	157.358	55.5052	-49.6194	190.597	69.7089	-69.4697	168.603	52.6648	-70.9504	163.293	47.9375	-34.3994	199.217	52.1302	-62.5182	175.111	36.1013	-58.3633	170.31	39.5736	-26.7652	207.353	66.6955	-15.3505	193.993	50.1968	13.9661	176.804	79.621	2.40197	
177	1.475	139.839	71.2181	-11.3489	133.921	72.0754	-46.5595	146.515	77.1459	-72.9863	160.889	75.0474	-93.0688	180.493	112.384	-61.7018	184.271	111.602	-88.9487	186.417	111.793	-111.578	190.988	88.1073	-67.7702	165.562	69.2458	-82.1285	156.423	56.9192	-47.1379	195.964	65.9955	-68.4003	170.639	48.1133	-70.1258	163.85	47.9471	-35.652	202.725	50.1931	-61.1437	175.939	39.9532	-59.3739	171.527	46.0766	-26.4166	205.819	67.4058	-10.4919	195.951	50.9333	14.5647	175.885	81.4689	4.99238	
178	1.48333	142.931	70.6166	-10.6278	137.281	73.5248	-48.5029	142.486	78.2053	-75.3853	163.244	75.413	-92.4799	180.95	111.029	-58.442	184.301	112.628	-85.5932	186.889	112.552	-112.855	190.304	88.7415	-67.803	169.373	70.566	-83.6463	157.869	58.0963	-46.7004	193.236	68.4932	-69.5261	172.484	47.0904	-69.5699	165.815	46.8427	-36.2928	202.541	54.1217	-59.4949	176.094	40.7253	-58.3811	171.312	42.2547	-26.3047	206.002	67.9545	-13.1871	198.102	52.1112	12.4475	178.732	79.4134	2.04789	
179	1.49167	143.827	74.1229	-12.7886	138.449	73.0017	-45.6585	144.601	76.03	-70.1935	165.183	73.3275	-88.101	187.004	112.29	-61.2472	184.201	117.936	-84.7132	192.088	115.004	-107.043	192.365	90.1291	-67.0297	173.245	69.3896	-83.4309	160.043	56.5173	-50.2625	197.003	66.7327	-68.7811	169.488	51.4795	-68.1554	165.956	50.3417	-34.0251	199.003	53.993	-61.6858	176.171	41.852	-58.0312	172.356	44.2678	-24.0133	208.594	65.7583	-12.4529	197.546	49.3226	13.1365	179.171	80.7043	4.11988	
180	1.5	145.682	74.0095	-11.5799	136.054	73.8115	-44.748	146.836	77.9359	-72.8313	165.144	73.9664	-91.9442	188.308	113.065	-54.3043	192.142	121.194	-82.4853	196.374	127.427	-105.132	191.66	90.4808	-68.8759	170.072	73.058	-81.8638	160.033	58.6162	-48.9572	194.478	71.9713	-66.5427	168.6	50.5198	-66.5802	164.702	50.0271	-36.0153	202.833	54.5777	-59.9041	174.961	41.4585	-57.5162	173.417	43.3821	-24.7305	212.169	67.435	-14.991	198.178	50.0689	15.2596	181.031	81.4942	5.43353	
181	1.50833	145.663	76.7742	-13.1006	137.974	76.41	-46.9901	144.471	78.2835	-71.9687	166.658	72.8779	-88.4673	188.857	117.65	-52.7643	194.783	126.897	-78.7748	202.359	132.964	-98.7177	194.754	91.1557	-66.459	171.51	73.8472	-82.2305	157.305	62.77	-48.7226	198.584	69.341	-67.1943	170.622	51.6488	-68.0821	163.473	54.2342	-36.5272	200.95	53.0207	-63.1265	174.57	43.7533	-56.5762	170.097	44.6213	-27.2889	207.454	68.9633	-11.2805	197.232	53.4865	12.8962	180.815	80.1631	4.09329	
182	1.51667	143.507	79.1493	-12.0051	137.183	76.0827	-44.5534	146.577	81.488	-77.0807	169.541	73.4328	-90.5121	191.494	122.102	-53.3217	198.899	129.702	-74.2638	208.56	136.404	-92.8292	194.095	94.3418	-65.2479	174.813	76.0188	-83.4771	156.503	65.0544	-48.8789	197.464	74.5143	-65.6143	169.832	54.4557	-69.5621	166.414	52.2602	-35.4732	200.425	55.7326	-64.2136	174.324	46.626	-57.3106	169.553	47.3564	-28.2668	210.49	71.4968	-13.6712	197.826	50.3857	12.9368	181.43	84.8715	5.72323	
183	1.525	146.658	78.8409	-11.9695	138.879	78.4989	-47.1699	144.659	82.7123	-75.088	168.891	75.0763	-90.9976	193.188	119.019	-48.9764	197.861	133.038	-70.9995	209.193	143.348	-87.2125	195.96	92.9552	-66.9187	172.112	76.0161	-83.0974	160.107	64.2323	-49.4361	196.047	73.4842	-70.6592	168.7	57.0268	-68.6378	164.248	55.8939	-37.2723	203.428	54.3376	-62.2617	174.933	44.8735	-58.1796	171.486	51.6588	-25.5269	210.691	70.9052	-13.1507	197.051	51.9153	13.2588	181.239	86.6225	3.67327	
184	1.53333	145.202	83.0981	-13.9223	141.136	81.1164	-47.4513	146.704	84.1037	-75.7029	169.259	76.2044	-87.6407	191.544	124.05	-51.3269	200.377	135.52	-71.899	212.809	143.966	-85.9996	194.633	94.9901	-69.5905	174.958	78.0304	-83.912	158.266	65.4324	-49.0536	196.331	75.486	-67.2917	168.595	60.824	-69.8894	164.812	55.84	-36.3843	202.048	58.8528	-60.6891	175.211	43.3491	-58.6243	172.335	46.6765	-26.6369	207.808	72.2659	-13.5429	195.993	58.1871	11.4835	180.536	86.1647	2.95492	
185	1.54167	145.083	80.7395	-11.8164	135.522	80.9584	-46.0581	146.378	83.48	-72.3943	168.008	77.5249	-89.021	191.503	125.225	-53.0631	197.438	135.316	-69.9182	213.461	146.782	-90.3014	190.928	99.528	-71.0349	171.066	77.838	-82.6651	158.463	66.7142	-52.9817	193.876	75.3491	-70.9081	172.187	58.7255	-72.2375	162.237	58.1486	-37.9806	202.254	61.1433	-60.5332	173.943	47.4196	-58.1263	172.5	47.4256	-27.8414	208.64	75.2855	-15.5311	195.262	55.0123	13.0199	179.062	87.4238	4.84501	
186	1.55	144.217	80.4847	-10.9073	136.382	81.4726	-46.967	147.446	84.8983	-74.3071	166.778	79.7273	-90.6665	187.695	124.362	-51.8211	193.929	136.003	-75.4481	206.406	144.288	-95.3469	191.395	99.9277	-68.0605	170.582	82.5062	-85.3729	156.888	67.0247	-50.039	195.253	75.2819	-71.1283	171.416	58.7652	-70.7507	162.725	57.6697	-38.034	201.663	58.0741	-65.1541	174.597	50.1452	-58.4583	170.608	51.002	-28.2428	207.544	75.0492	-13.7122	198.329	57.5146	12.5141	181.549	91.4855	1.1845	
187	1.55833	143.903	78.704	-10.3135	139.175	79.2712	-46.4172	142.708	82.4075	-73.5447	163.153	79.5093	-92.6764	187.701	119.882	-55.0427	188.734	132.81	-82.4441	198.473	134.922	-103.369	190.901	97.0223	-68.9945	166.254	78.605	-82.6177	158.318	65.9949	-49.5134	193.348	75.8283	-71.3061	169.823	60.2613	-71.2595	163.962	57.47	-35.1474	199.986	56.8071	-65.9402	174.269	44.5159	-56.1733	173.142	50.7525	-23.6659	210.736	72.9412	-13.4276	198.886	59.9009	10.5089	180.645	90.0494	0.358336	
188	1.56667	144.827	77.435	-10.7228	133.901	77.557	-46.118	144.186	81.8712	-74.9658	161.679	78.2693	-93.2683	182.321	119.328	-61.7267	182.136	121.49	-89.3611	186.59	121.228	-112.18	188.801	96.5178	-73.3148	171.494	74.2725	-85.3629	158.725	64.7121	-48.2289	192.848	75.7593	-70.2312	169.955	55.6274	-71.1417	165.492	54.8237	-35.2317	200.273	59.8232	-62.76	173.322	47.009	-56.4586	173.188	54.0024	-23.748	208.671	72.4769	-13.9965	199.062	62.7383	9.84293	182.43	86.4782	3.07646	
189	1.575	142.346	79.9998	-13.9443	136.124	77.6716	-48.4038	142.61	80.6633	-78.1103	163.593	75.6856	-92.6217	178.379	114.545	-62.2599	174.098	116.634	-92.3479	174.373	113.964	-114.681	188.152	95.0247	-73.9325	164.13	73.0905	-83.6507	155.933	63.5335	-50.7597	190.952	73.2922	-73.1622	167.692	56.3469	-69.7216	166.946	53.2285	-36.2345	203.212	55.751	-62.7508	173.636	47.3303	-55.2561	174.779	52.4369	-26.719	210.507	73.8352	-15.1629	198.326	62.3617	11.3325	178.941	89.5828	0.576667	
190	1.58333	142.184	77.5457	-10.2593	136.484	77.0587	-47.4978	141.171	78.9231	-74.5895	164.442	75.4241	-93.2364	177.232	117.04	-63.5462	174.321	117.839	-90.1026	175.362	115.234	-116.43	188.702	94.9154	-70.2586	166.42	71.2032	-82.8098	158.888	62.675	-47.4029	189.976	73.3179	-72.5788	168.223	56.0612	-69.6914	166.289	55.9298	-33.0118	201.247	60.3213	-61.1623	174.009	46.112	-56.5281	175.445	51.1799	-25.9907	210.233	74.2963	-17.8354	197.379	60.6283	12.8032	178.013	90.9398	1.06743	
191	1.59167	143.854	79.3827	-13.7975	135.273	74.6544	-43.5241	140.586	79.9886	-77.3328	158.741	75.8339	-92.2738	180.222	118.464	-63.3556	177.428	123.427	-86.084	177.991	125.679	-108.914	186.021	93.7925	-74.0213	166.212	73.3674	-83.1532	155.718	64.0019	-47.8059	193.004	74.4761	-69.6212	166.704	57.5142	-68.9719	163.503	57.8077	-35.0255	199.913	57.7739	-64.2842	173.904	42.9866	-55.5543	173.878	54.7448	-24.8024	206.834	77.9347	-14.5515	194.933	61.4387	11.6699	180.24	88.8565	-1.41228	
192	1.6	139.707	79.9739	-11.7444	128.997	76.6279	-46.2813	140.202	80.4951	-73.4568	157.033	76.5415	-90.7576	174.751	124.119	-56.1157	178.667	128.377	-78.7059	181.409	136.906	-106.204	183.641	96.5856	-71.4594	161.186	76.3615	-80.5012	151.727	65.0122	-46.9432	185.977	77.5641	-70.9497	165.99	56.5509	-69.1768	160.979	60.2465	-33.0344	193.883	63.28	-62.9207	170.27	46.1493	-55.3294	172.904	49.7043	-24.3617	204.235	76.6044	-14.9711	193.926	63.7209	9.57763	175.009	88.8347	4.91962	
193	1.60833	138.336	77.0818	-8.50456	129.431	78.1337	-47.2628	132.813	79.3311	-70.715	155.066	77.9769	-90.4364	173.108	124.858	-50.827	174.803	135.199	-74.122	179.48	146.729	-98.9975	178.217	100.013	-69.9442	159.855	81.3057	-81.8657	149.542	66.3181	-49.5183	188.215	79.8826	-67.0081	161.242	61.4647	-67.3575	158.716	59.7546	-32.5376	197.02	61.4225	-62.3918	168.73	46.4569	-54.5023	172.442	52.4447	-22.9786	205.883	78.9978	-15.9898	195.148	60.0785	12.8858	173.202	88.4931	5.65059	
194	1.61667	133.486	79.214	-9.28025	125.11	77.9775	-45.8247	131.603	82.0379	-73.3571	152.032	79.033	-88.2825	172.448	127.776	-53.8021	172.09	138.967	-74.4252	180.882	147.148	-94.2161	177.564	101.178	-71.534	159.273	78.2093	-81.792	148.715	64.8882	-49.3819	184.109	81.4417	-68.3232	162.817	60.4312	-69.6204	157.865	55.6379	-36.6335	189.887	67.7337	-63.2435	170.416	48.284	-58.4195	166.385	55.0268	-28.0827	200.106	81.9965	-16.1923	192.571	64.9956	12.3075	170.675	93.1012	3.88026	
195	1.625	134.45	79.7042	-11.0804	126.551	77.0298	-45.7245	129.955	79.3109	-70.3755	151.589	78.1936	-86.2067	167.15	127.99	-55.0687	166.859	139.667	-75.1655	172.71	152.243	-97.2544	171.85	104.313	-70.4827	154.51	80.3663	-82.1054	148.959	63.2946	-51.7498	181.997	80.6797	-69.9809	161.061	61.078	-71.2608	154.528	57.1098	-37.0301	189.413	67.4332	-64.7567	168.715	48.0223	-58.817	163.607	57.8606	-26.0223	194.202	83.0006	-13.6757	189.405	65.5028	10.9006	168.033	91.114	3.59481	
196	1.63333	130.853	77.9709	-10.7393	123.988	75.468	-45.9582	127.782	77.5386	-70.8915	145.267	77.8342	-90.7684	162.36	129.119	-57.0995	162.482	137.266	-78.1256	167.432	148.836	-99.0838	169.388	102.427	-73.1444	152.44	78.1978	-83.6356	145.425	64.6834	-48.1107	177.919	84.2831	-70.2389	158.547	58.9461	-72.0031	153.471	55.3108	-38.282	186.708	69.9218	-62.9251	164.098	49.1835	-56.6835	162.583	51.4764	-26.6288	197.773	84.6592	-16.554	187.652	64.8725	12.2819	166.012	92.3452	1.28025	
